# xmcd
#
# Track frame offsets:
#	150
#	18021
#	35722
#	53394
#	70851
#	85892
#	103561
#	121134
#	137391
#	153128
#
# Disc length: 2239 seconds
#
# Revision: 8
# Processed by: cddbd v1.5.2PL0 Copyright (c) Steve Scherf et al.
# Submitted via: EasyCDDAExtractor 12.0.7.1
#
DISCID=6b08bd0a
DTITLE=ปราโมทย์ วิเลปะนะ - ขอให้รักบังเกิด
DYEAR=2550
DGENRE=Ambient
TTITLE0=ขอให้รักบังเกิด
TTITLE1=แค่คนอีกคน
TTITLE2=อย่าปล่อยให้เธอเหงา
TTITLE3=ถ้ายังรักกัน
TTITLE4=เธอสวยกว่า
TTITLE5=ทุกวินาที
TTITLE6=น้ำใสใจจริง
TTITLE7=ยอมต่อไป
TTITLE8=รักนิรันดร์
TTITLE9=อย่าให้เห็น
EXTD=
EXTT0=
EXTT1=
EXTT2=
EXTT3=
EXTT4=
EXTT5=
EXTT6=
EXTT7=
EXTT8=
EXTT9=
PLAYORDER=
